<?xml version="1.0" standalone="no"?>
<!DOCTYPE svg PUBLIC "-//W3C//DTD SVG 1.1//EN" "http://www.w3.org/Graphics/SVG/1.1/DTD/svg11.dtd" >
<svg xmlns="http://www.w3.org/2000/svg" xmlns:xlink="http://www.w3.org/1999/xlink" version="1.1">
<metadata>
Created by FontForge 20200427 at Mon Feb 22 18:49:58 2016
 By www
Cyberverse (c) (Neale Davidson). 2011-2016. All Rights Reserved
</metadata>
<defs>
<font id="Cyberverse" horiz-adv-x="1550" >
  <font-face 
    font-family="Cyberverse"
    font-weight="400"
    font-stretch="normal"
    units-per-em="2048"
    panose-1="2 0 5 0 0 0 0 0 0 0"
    ascent="1638"
    descent="-410"
    x-height="1050"
    cap-height="1500"
    bbox="-350 -550 2500 2200"
    underline-thickness="150"
    underline-position="-292"
    unicode-range="U+001D-F002"
  />
<missing-glyph horiz-adv-x="1600" 
d="M0 200v1100q0 200 200 200h1100q200 0 200 -200v-1100q0 -200 -200 -200h-1100q-200 0 -200 200zM1475 201v1099q0 175 -175 175h-1100q-174 0 -175 -175v-1100q1 -175 175 -175h1101q174 0 174 176z" />
    <glyph glyph-name=".notdef" horiz-adv-x="1600" 
d="M0 200v1100q0 200 200 200h1100q200 0 200 -200v-1100q0 -200 -200 -200h-1100q-200 0 -200 200zM1475 201v1099q0 175 -175 175h-1100q-174 0 -175 -175v-1100q1 -175 175 -175h1101q174 0 174 176z" />
    <glyph glyph-name=".null" horiz-adv-x="100" 
 />
    <glyph glyph-name=".null" horiz-adv-x="100" 
 />
    <glyph glyph-name="nonmarkingreturn" horiz-adv-x="100" 
 />
    <glyph glyph-name="space" unicode=" " horiz-adv-x="1000" 
 />
    <glyph glyph-name="space" unicode="&#xa0;" horiz-adv-x="1000" 
 />
    <glyph glyph-name="exclam" unicode="!" horiz-adv-x="450" 
d="M0 1500h300v-950q0 -200 -300 -200v1150zM0 250h300v-250h-300v250z" />
    <glyph glyph-name="quotedbl" unicode="&#x22;" horiz-adv-x="850" 
d="M0 1500h300v-300q0 -200 -300 -200v500zM400 1500h300v-300q0 -200 -300 -200v500z" />
    <glyph glyph-name="numbersign" unicode="#" horiz-adv-x="1350" 
d="M700 400h-200v-300h-300v300h-200v250h200v200h-200v250h200v300h300v-300h200v300h300v-300h200v-250h-200v-200h200v-250h-200v-300h-300v300zM500 650h200v200h-200v-200z" />
    <glyph glyph-name="dollar" unicode="$" horiz-adv-x="1450" 
d="M500 1400v100h300v-100h200q300 0 300 -200v-50h-950q-50 0 -50 -50v-150q0 -50 50 -50h650q300 0 300 -200v-300q0 -300 -300 -300h-200v-100h-300v100h-200q-300 0 -300 200v50h950q50 0 50 50v200q0 50 -50 50h-650q-300 0 -300 200v350q0 200 300 200h200z" />
    <glyph glyph-name="percent" unicode="%" 
d="M600 1000v200q0 50 -50 50h-200q-50 0 -50 -50v-200q0 -50 50 -50h200q50 0 50 50zM1100 300v200q0 50 -50 50h-200q-50 0 -50 -50v-200q0 -50 50 -50h200q50 0 50 50zM503 163l-103 -163h-350l443 700h-193q-300 0 -300 200v400q0 200 300 200h300q270 0 297 -163
l103 163h350l-443 -700h193q300 0 300 -200v-400q0 -200 -350 -200h-250q-270 0 -297 163z" />
    <glyph glyph-name="ampersand" unicode="&#x26;" horiz-adv-x="1450" 
d="M1100 200q0 -200 -300 -200h-500q-300 0 -300 200v550q0 100 150 150q-150 50 -150 135v265q0 200 300 200h700v-50q0 -200 -300 -200h-350q-50 0 -50 -50v-300h500v50q0 200 300 200v-250h200v-250h-200v-450zM800 650h-500v-350q0 -50 50 -50h450v400z" />
    <glyph glyph-name="quotesingle" unicode="'" horiz-adv-x="450" 
d="M0 1500h300v-300q0 -200 -300 -200v500z" />
    <glyph glyph-name="parenleft" unicode="(" horiz-adv-x="750" 
d="M600 -250h-300q-300 0 -300 200v1600q0 200 300 200h300v-250h-250q-50 0 -50 -50v-1400q0 -50 50 -50h250v-250z" />
    <glyph glyph-name="parenright" unicode=")" horiz-adv-x="750" 
d="M0 0h250q50 0 50 50v1400q0 50 -50 50h-250v250h300q300 0 300 -200v-1600q0 -200 -300 -200h-300v250z" />
    <glyph glyph-name="asterisk" unicode="*" horiz-adv-x="1124" 
d="M350 1357v243h300v-243l232 75l92 -286l-231 -75l143 -197l-243 -176l-143 197l-143 -197l-243 176l143 197l-231 75l92 286z" />
    <glyph glyph-name="plus" unicode="+" horiz-adv-x="1150" 
d="M350 650h-350v250h350v450h300v-450h350v-250h-350v-450h-300v450z" />
    <glyph glyph-name="comma" unicode="," horiz-adv-x="450" 
d="M0 250h300v-300q0 -200 -300 -200v500z" />
    <glyph glyph-name="hyphen" unicode="-" horiz-adv-x="1150" 
d="M0 650v250h1000v-250h-1000z" />
    <glyph glyph-name="hyphen" unicode="&#xad;" horiz-adv-x="1150" 
d="M0 650v250h1000v-250h-1000z" />
    <glyph glyph-name="period" unicode="." horiz-adv-x="450" 
d="M0 250h300v-250h-300v250z" />
    <glyph glyph-name="slash" unicode="/" horiz-adv-x="1450" 
d="M350 0h-350l950 1500h350z" />
    <glyph glyph-name="zero" unicode="0" 
d="M1400 200q0 -200 -300 -200h-800q-300 0 -300 200v1100q0 200 300 200h800q300 0 300 -200v-1100zM1100 300v900q0 50 -50 50h-700q-50 0 -50 -50v-900q0 -50 50 -50h700q50 0 50 50zM700 550q-83 0 -141.5 58.5t-58.5 141.5t58.5 141.5t141.5 58.5t141.5 -58.5
t58.5 -141.5t-58.5 -141.5t-141.5 -58.5z" />
    <glyph glyph-name="one" unicode="1" horiz-adv-x="750" 
d="M300 1250h-300v50q0 200 300 200h300v-1300q0 -200 -300 -200v1250z" />
    <glyph glyph-name="two" unicode="2" 
d="M1100 650h-750q-50 0 -50 -50v-350h800q300 0 300 -200v-50h-1400v600q0 300 300 300h750q50 0 50 50v250q0 50 -50 50h-1050v50q0 200 300 200h800q300 0 300 -200v-450q0 -200 -300 -200z" />
    <glyph glyph-name="three" unicode="3" 
d="M300 1250q-300 0 -300 200v50h1100q300 0 300 -200v-265q0 -85 -150 -135q150 -50 150 -150v-550q0 -200 -300 -200h-800q-300 0 -300 200v50h1050q50 0 50 50v350h-400q-300 0 -300 200v50h700v300q0 50 -50 50h-750z" />
    <glyph glyph-name="four" unicode="4" 
d="M1200 650v-450q0 -200 -300 -200v650h-600q-300 0 -300 200v650q300 0 300 -200v-350q0 -50 50 -50h550v600h300v-600h200v-250h-200z" />
    <glyph glyph-name="five" unicode="5" 
d="M1400 800v-600q0 -200 -300 -200h-800q-300 0 -300 200v50h1050q50 0 50 50v400q0 50 -50 50h-1050v750h1300v-50q0 -200 -300 -200h-700v-250h800q300 0 300 -200z" />
    <glyph glyph-name="six" unicode="6" 
d="M300 750v-450q0 -50 50 -50h700q50 0 50 50v400q0 50 -50 50h-750zM500 1000h600q300 0 300 -200v-600q0 -200 -300 -200h-800q-300 0 -300 300v900q0 300 300 300h1000v-50q0 -200 -300 -200h-650q-50 0 -50 -50v-300q0 100 200 100z" />
    <glyph glyph-name="seven" unicode="7" 
d="M350 300l650 950h-700q-300 0 -300 200v50h1400v-100q0 -100 -150 -300l-750 -1100h-300q0 100 150 300z" />
    <glyph glyph-name="eight" unicode="8" 
d="M1050 250q50 0 50 50v350h-800v-350q0 -50 50 -50h700zM1100 900v300q0 50 -50 50h-700q-50 0 -50 -50v-400q0 100 200 100h600zM1100 1500q300 0 300 -200v-265q0 -85 -150 -135q150 -50 150 -150v-550q0 -200 -300 -200h-800q-300 0 -300 200v550q0 100 150 150
q-150 50 -150 135v265q0 200 300 200h800z" />
    <glyph glyph-name="nine" unicode="9" 
d="M900 750q200 0 200 -100v550q0 50 -50 50h-700q-50 0 -50 -50v-400q0 -50 50 -50h550zM1100 500h-800q-300 0 -300 200v600q0 200 300 200h800q300 0 300 -300v-900q0 -300 -300 -300h-1000v50q0 200 300 200h650q50 0 50 50v200z" />
    <glyph glyph-name="colon" unicode=":" horiz-adv-x="450" 
d="M0 900h300v-250h-300v250zM0 250h300v-250h-300v250z" />
    <glyph glyph-name="semicolon" unicode=";" horiz-adv-x="450" 
d="M0 250h300v-300q0 -200 -300 -200v500zM0 900h300v-250h-300v250z" />
    <glyph glyph-name="semicolon" unicode="&#x37e;" horiz-adv-x="450" 
d="M0 250h300v-300q0 -200 -300 -200v500zM0 900h300v-250h-300v250z" />
    <glyph glyph-name="less" unicode="&#x3c;" horiz-adv-x="1000" 
d="M0 775l500 525h350l-500 -525l500 -525h-350z" />
    <glyph glyph-name="equal" unicode="=" horiz-adv-x="1150" 
d="M0 400v250h1000v-250h-1000zM0 850v250h1000v-250h-1000z" />
    <glyph glyph-name="greater" unicode="&#x3e;" horiz-adv-x="1000" 
d="M350 250h-350l500 525l-500 525h350l500 -525z" />
    <glyph glyph-name="question" unicode="?" horiz-adv-x="1350" 
d="M900 650h-250q-50 0 -50 -50v-50q0 -200 -300 -200v250q0 300 300 300h250q50 0 50 50v250q0 50 -50 50h-850v50q0 200 300 200h600q300 0 300 -200v-450q0 -200 -300 -200zM300 250h300v-250h-300v250z" />
    <glyph glyph-name="at" unicode="@" 
d="M1300 250v-50q0 -200 -300 -200h-700q-300 0 -300 300v1000q0 200 300 200h800q300 0 300 -200v-950h-350v100q-50 -100 -200 -100h-100q-300 0 -300 250v300q0 250 300 250h300v50q0 50 -50 50h-650q-50 0 -50 -50v-900q0 -50 50 -50h950zM800 850q-50 0 -50 -50v-100
q0 -50 50 -50h250v200h-250z" />
    <glyph glyph-name="A" unicode="A" 
d="M1100 600h-800v-400q0 -200 -300 -200v1300q0 200 300 200h1100v-1500h-300v600zM1100 1250h-800v-400h800v400z" />
    <glyph glyph-name="B" unicode="B" 
d="M1200 1500q200 0 200 -200v-250q0 -100 -150 -150q150 -50 150 -150v-550q0 -200 -250 -200h-850q-300 0 -300 200v1300h1200zM300 1250v-950q0 -50 50 -50h700q50 0 50 50v350h-250q-350 0 -350 200v50h600v350h-800z" />
    <glyph glyph-name="C" unicode="C" 
d="M1100 1200q0 50 -50 50h-700q-50 0 -50 -50v-900q0 -50 50 -50h700q50 0 50 50v150q0 200 300 200v-350q0 -300 -300 -300h-800q-300 0 -300 200v1100q0 200 300 200h800q300 0 300 -200v-200q0 -200 -300 -200v300z" />
    <glyph glyph-name="D" unicode="D" 
d="M300 300q0 -50 50 -50h700q50 0 50 50v900q0 50 -50 50h-750q-300 0 -300 200v50h1100q300 0 300 -200v-1100q0 -200 -300 -200h-1100v1050h300v-750z" />
    <glyph glyph-name="E" unicode="E" 
d="M300 250h1100v-50q0 -200 -300 -200h-800q-300 0 -300 200v1100q0 200 300 200h800q300 0 300 -200v-50h-1100v-350h1000v-50q0 -200 -300 -200h-700v-400z" />
    <glyph glyph-name="F" unicode="F" 
d="M300 200q0 -200 -300 -200v1300q0 200 300 200h800q300 0 300 -200v-50h-1100v-350h1000v-50q0 -200 -300 -200h-700v-450z" />
    <glyph glyph-name="G" unicode="G" 
d="M350 1250q-50 0 -50 -50v-900q0 -50 50 -50h700q50 0 50 50v350h-300q-300 0 -300 200v50h900v-700q0 -200 -300 -200h-800q-300 0 -300 200v1100q0 200 300 200h800q300 0 300 -200v-50h-1050z" />
    <glyph glyph-name="H" unicode="H" 
d="M300 650v-650h-300v1500q300 0 300 -200v-400h800v600h300v-1300q0 -200 -300 -200v650h-800z" />
    <glyph glyph-name="I" unicode="I" horiz-adv-x="450" 
d="M0 1500h300v-1300q0 -200 -300 -200v1500z" />
    <glyph glyph-name="J" unicode="J" horiz-adv-x="1350" 
d="M300 300q0 -50 50 -50h500q50 0 50 50v1200h300v-1300q0 -200 -300 -200h-600q-300 0 -300 200v200q0 200 300 200v-300z" />
    <glyph glyph-name="K" unicode="K" 
d="M584 900l63 83l403 517h350l-575 -750l575 -750h-350l-400 522l-60 78h-290v-600h-300v1300q0 200 300 200v-600h284z" />
    <glyph glyph-name="L" unicode="L" 
d="M300 250h1100v-50q0 -200 -300 -200h-800q-300 0 -300 200v1100q0 200 300 200v-1250z" />
    <glyph glyph-name="M" unicode="M" horiz-adv-x="1850" 
d="M850 750l400 550q150 200 350 200h100v-1500q-300 0 -300 200v850l-550 -750l-550 750v-850q0 -200 -300 -200v1500h200q100 0 250 -200z" />
    <glyph glyph-name="N" unicode="N" 
d="M1100 450v850q0 200 300 200v-1500h-100q-250 0 -400 200l-600 850v-1050h-300v1500h100q250 0 401 -200z" />
    <glyph glyph-name="O" unicode="O" 
d="M1400 200q0 -200 -300 -200h-800q-300 0 -300 200v1100q0 200 300 200h800q300 0 300 -200v-1100zM1100 300v900q0 50 -50 50h-700q-50 0 -50 -50v-900q0 -50 50 -50h700q50 0 50 50z" />
    <glyph glyph-name="P" unicode="P" 
d="M1100 950v250q0 50 -50 50h-750v-1050q0 -200 -300 -200v1500h1100q300 0 300 -200v-450q0 -200 -300 -200h-600v50q0 200 300 200h250q50 0 50 50z" />
    <glyph glyph-name="Q" unicode="Q" horiz-adv-x="1600" 
d="M1100 485v715q0 50 -50 50h-700q-50 0 -50 -50v-900q0 -50 50 -50h569l-469 650h350zM300 0q-300 0 -300 200v1100q0 200 300 200h800q300 0 300 -200v-1100q0 -57 -24 -97l74 -103h-1150z" />
    <glyph glyph-name="R" unicode="R" horiz-adv-x="1600" 
d="M1050 900q50 0 50 50v250q0 50 -50 50h-750v-1050q0 -200 -300 -200v1500h1100q300 0 300 -200v-450q0 -200 -300 -200h-119l469 -650h-350l-650 900h600z" />
    <glyph glyph-name="S" unicode="S" 
d="M1400 700v-400q0 -300 -300 -300h-800q-300 0 -300 200v50h1050q50 0 50 50v300q0 50 -50 50h-750q-300 0 -300 200v450q0 200 300 200h800q300 0 300 -200v-50h-1050q-50 0 -50 -50v-250q0 -50 50 -50h750q300 0 300 -200z" />
    <glyph glyph-name="T" unicode="T" 
d="M550 1250l-250 1q-300 0 -300 199l1 50l1099 -1q300 0 300 -200v-49h-550v-950q0 -300 -300 -300v1250z" />
    <glyph glyph-name="U" unicode="U" 
d="M300 300q0 -50 50 -50h700q50 0 50 50v1200h300v-1300q0 -200 -300 -200h-800q-300 0 -300 200v1300q300 0 300 -200v-1000z" />
    <glyph glyph-name="V" unicode="V" horiz-adv-x="1650" 
d="M1200 1036v264q0 200 300 200v-550l-750 -950l-750 950v550h300v-464l453 -575z" />
    <glyph glyph-name="W" unicode="W" horiz-adv-x="1850" 
d="M1000 250h350q50 0 50 50v1200h300v-1300q0 -200 -300 -200h-1100q-300 0 -300 200v1300q300 0 300 -200v-1000q0 -50 50 -50h350v950q300 0 300 -200v-750z" />
    <glyph glyph-name="X" unicode="X" horiz-adv-x="1650" 
d="M572 753l-572 747h350l397 -517l203 267q200 250 450 250h100l-575 -750l575 -750h-350l-400 522l-400 -522h-350z" />
    <glyph glyph-name="Y" unicode="Y" 
d="M1050 250q50 0 50 50v300h-800q-300 0 -300 200v700q300 0 300 -200v-350q0 -50 50 -50h700q50 0 50 50v550h300v-1300q0 -200 -300 -200h-800v50q0 200 300 200h450z" />
    <glyph glyph-name="Z" unicode="Z" 
d="M200 450l800 800h-600q-400 0 -400 200v50h1400v-100q0 -150 -200 -350l-800 -800h700q300 0 300 -200v-50h-1400v100q0 150 200 350z" />
    <glyph glyph-name="bracketleft" unicode="[" horiz-adv-x="750" 
d="M600 -250h-600v2000h600v-250h-300v-1500h300v-250z" />
    <glyph glyph-name="backslash" unicode="\" horiz-adv-x="1450" 
d="M0 1500h350l950 -1500h-350z" />
    <glyph glyph-name="bracketright" unicode="]" horiz-adv-x="750" 
d="M0 0h300v1500h-300v250h600v-2000h-600v250z" />
    <glyph glyph-name="asciicircum" unicode="^" horiz-adv-x="950" 
d="M400 2050l400 -200v-250l-400 200l-400 -200v250z" />
    <glyph glyph-name="underscore" unicode="_" 
d="M1400 -100v-250h-1400v250h1400z" />
    <glyph glyph-name="grave" unicode="`" horiz-adv-x="850" 
d="M0 2000h500l200 -350h-250z" />
    <glyph glyph-name="a" unicode="a" horiz-adv-x="1350" 
d="M900 650v100q0 50 -50 50h-750v50q0 200 300 200h500q300 0 300 -200v-850h-300v100q-50 -100 -200 -100h-400q-300 0 -300 200v250q0 200 300 200h600zM900 500q-35 -100 -200 -100h-350q-50 0 -50 -50v-100h600v250z" />
    <glyph glyph-name="b" unicode="b" horiz-adv-x="1350" 
d="M300 0h-300v1300q0 200 300 200v-450h600q300 0 300 -200v-650q0 -200 -300 -200h-400q-150 0 -200 100v-100zM850 250q50 0 50 50v450q0 50 -50 50h-350q-165 0 -200 100v-650h550z" />
    <glyph glyph-name="c" unicode="c" horiz-adv-x="1350" 
d="M350 800q-50 0 -50 -50v-450q0 -50 50 -50h850v-50q0 -200 -300 -200h-600q-300 0 -300 200v650q0 200 300 200h600q300 0 300 -200v-50h-850z" />
    <glyph glyph-name="d" unicode="d" horiz-adv-x="1350" 
d="M900 1050v450h300v-1500h-300v100q-50 -100 -200 -100h-400q-300 0 -300 200v650q0 200 300 200h600zM900 900q-35 -100 -200 -100h-350q-50 0 -50 -50v-450q0 -50 50 -50h550v650z" />
    <glyph glyph-name="e" unicode="e" horiz-adv-x="1350" 
d="M300 400v-100q0 -50 50 -50h750v-50q0 -200 -300 -200h-500q-300 0 -300 200v650q0 200 300 200h600q265 0 300 -200v-250q0 -200 -300 -200h-600zM300 550q0 100 200 100h350q50 0 50 50v50q0 50 -49 50h-501q-50 0 -50 -50v-200z" />
    <glyph glyph-name="f" unicode="f" horiz-adv-x="1150" 
d="M300 1050v250q0 200 300 200h400v-50q0 -200 -300 -200h-100v-200h300v-50q0 -200 -300 -200v-600q0 -200 -300 -200v800h-300v50q0 200 300 200z" />
    <glyph glyph-name="g" unicode="g" horiz-adv-x="1350" 
d="M350 800q-50 0 -50 -50v-450q0 -50 50 -50h550v550h-550zM1200 1050v-1350q0 -250 -300 -250h-800v50q0 200 300 200h450q50 0 50 50v350q-35 -100 -200 -100h-400q-300 0 -300 200v650q0 200 300 200h400q150 0 200 -100v100h300z" />
    <glyph glyph-name="h" unicode="h" horiz-adv-x="1250" 
d="M300 950q50 100 200 100h300q300 0 300 -200v-650q0 -200 -300 -200v750q0 50 -50 50h-450v-800h-300v1300q0 200 300 200v-550z" />
    <glyph glyph-name="i" unicode="i" horiz-adv-x="450" 
d="M0 1050h300v-850q0 -200 -300 -200v1050zM300 1500v-300h-300v300h300z" />
    <glyph glyph-name="j" unicode="j" horiz-adv-x="450" 
d="M0 1050h300v-1400q0 -200 -300 -200h-350v50q0 200 300 200q50 0 50 50v1300zM300 1500v-300h-300v300h300z" />
    <glyph glyph-name="k" unicode="k" horiz-adv-x="1450" 
d="M300 332l650 718h350l-475 -525l475 -525h-350l-300 332l-300 -332h-350v1300q0 200 300 200v-1168z" />
    <glyph glyph-name="l" unicode="l" horiz-adv-x="450" 
d="M300 0h-300v1300q0 200 300 200v-1500z" />
    <glyph glyph-name="m" unicode="m" horiz-adv-x="1650" 
d="M600 800h-300v-800q-300 0 -300 200v850h300v-100q50 100 200 100h700q300 0 300 -200v-650q0 -200 -300 -200v750q0 50 -50 50h-250v-800q-300 0 -300 200v600z" />
    <glyph glyph-name="n" unicode="n" horiz-adv-x="1350" 
d="M900 0v750q0 50 -50 50h-550v-800q-300 0 -300 200v850h300v-100q50 100 200 100h400q300 0 300 -300v-550q0 -200 -300 -200z" />
    <glyph glyph-name="o" unicode="o" horiz-adv-x="1350" 
d="M1200 200q0 -200 -350 -200h-550q-300 0 -300 200v650q0 200 300 200h600q300 0 300 -200v-650zM900 300v450q0 50 -50 50h-500q-50 0 -50 -50v-450q0 -50 50 -50h500q50 0 50 50z" />
    <glyph glyph-name="p" unicode="p" horiz-adv-x="1350" 
d="M300 0v-300q0 -200 -300 -200v1550h300v-100q50 100 200 100h400q300 0 300 -200v-650q0 -200 -300 -200h-600zM300 150q0 100 200 100h350q50 0 50 50v450q0 50 -50 50h-550v-650z" />
    <glyph glyph-name="q" unicode="q" horiz-adv-x="1350" 
d="M700 0h-400q-300 0 -300 200v650q0 200 300 200h400q150 0 200 -100v100h300v-1350q0 -200 -300 -200v600q0 -100 -200 -100zM900 250v550h-550q-50 0 -50 -50v-450q0 -50 50 -50h550z" />
    <glyph glyph-name="r" unicode="r" horiz-adv-x="1250" 
d="M800 550v200q0 50 -50 50h-450v-800q-300 0 -300 200v850h300v-100q50 100 200 100h300q300 0 300 -200v-100q0 -200 -300 -200z" />
    <glyph glyph-name="s" unicode="s" horiz-adv-x="1350" 
d="M1200 450v-250q0 -200 -300 -200h-600q-300 0 -300 200v50h850q50 0 50 50v50q0 50 -50 50h-550q-300 0 -300 200v250q0 200 300 200h500q300 0 300 -200v-50h-750q-50 0 -50 -50v-50q0 -50 50 -50h550q300 0 300 -200z" />
    <glyph glyph-name="t" unicode="t" horiz-adv-x="1050" 
d="M0 800v50q0 200 300 200v450q300 0 300 -200v-250h300v-50q0 -200 -300 -200v-550q300 0 300 -200v-50h-300q-300 0 -300 200v600h-300z" />
    <glyph glyph-name="u" unicode="u" horiz-adv-x="1350" 
d="M300 1050v-750q0 -50 50 -50h550v800h300v-1050h-300v100q-50 -100 -200 -100h-400q-300 0 -300 200v650q0 200 300 200z" />
    <glyph glyph-name="v" unicode="v" horiz-adv-x="1450" 
d="M1000 786v264h300v-300l-650 -750l-650 750v300q300 0 300 -200v-64l350 -400z" />
    <glyph glyph-name="w" unicode="w" horiz-adv-x="1650" 
d="M900 250h250q50 0 50 50v750q300 0 300 -200v-650q0 -200 -300 -200h-900q-300 0 -300 200v650q0 200 300 200v-750q0 -50 50 -50h250v600q0 200 300 200v-800z" />
    <glyph glyph-name="x" unicode="x" horiz-adv-x="1450" 
d="M475 525l-475 525h350l300 -332l200 232q100 100 250 100h200l-475 -525l475 -525h-350l-300 332l-300 -332h-350z" />
    <glyph glyph-name="y" unicode="y" horiz-adv-x="1350" 
d="M850 -250q50 0 50 50v300q-25 -100 -200 -100h-400q-300 0 -300 300v750q300 0 300 -200v-550q0 -50 50 -50h500q50 0 50 50v750h300v-1300q0 -250 -300 -250h-800v50q0 200 300 200h450z" />
    <glyph glyph-name="z" unicode="z" horiz-adv-x="1350" 
d="M100 350l650 450h-450q-300 0 -300 200v50h1200v-150q0 -150 -100 -200l-650 -450h350q400 0 400 -200v-50h-1200v150q0 150 100 200z" />
    <glyph glyph-name="braceleft" unicode="{" horiz-adv-x="750" 
d="M400 50q0 -50 50 -50h150v-250h-200q-300 0 -300 200v700h-100v250h100v650q0 200 300 200h200v-250h-150q-50 0 -50 -50v-400q0 -100 -150 -150q150 -50 150 -150v-700z" />
    <glyph glyph-name="bar" unicode="|" horiz-adv-x="450" 
d="M300 -250h-300v2000h300v-2000z" />
    <glyph glyph-name="braceright" unicode="}" horiz-adv-x="750" 
d="M200 750q0 100 150 150q-150 50 -150 150v400q0 50 -50 50h-150v250h200q300 0 300 -200v-650h100v-250h-100v-700q0 -200 -300 -200h-200v250h150q50 0 50 50v700z" />
    <glyph glyph-name="asciitilde" unicode="~" horiz-adv-x="1150" 
d="M1000 2050v-250q-50 -50 -150 -100t-200 -50q-50 0 -150 50t-150 50q-100 0 -200 -50t-150 -100v250q50 50 150 100t200 50q50 0 150 -50t150 -50q100 0 200 50t150 100z" />
    <glyph glyph-name="exclamdown" unicode="&#xa1;" horiz-adv-x="450" 
d="M300 0h-300v950q0 200 300 200v-1150zM300 1250h-300v250h300v-250z" />
    <glyph glyph-name="cent" unicode="&#xa2;" horiz-adv-x="1350" 
d="M450 1150v100h300v-100h150q300 0 300 -200v-50h-850q-50 0 -50 -50v-450q0 -50 50 -50h850v-50q0 -200 -300 -200h-150v-100h-300v100h-150q-300 0 -300 200v650q0 200 300 200h150z" />
    <glyph glyph-name="sterling" unicode="&#xa3;" 
d="M100 900v400q0 200 300 200h700q300 0 300 -200v-200q0 -200 -300 -200v300q0 50 -50 50h-600q-50 0 -50 -50v-300h600v-250h-600v-350q0 -50 50 -50h950v-50q0 -200 -300 -200h-1100v250h100v400h-100v250h100z" />
    <glyph glyph-name="currency" unicode="&#xa4;" horiz-adv-x="1650" 
d="M900 700v200q0 50 -50 50h-200q-50 0 -50 -50v-200q0 -50 50 -50h200q50 0 50 50zM657 400l-307 -400h-350l354 466q-54 49 -54 134v400q0 48 18 85l-318 415h350l231 -300h331l38 50q200 250 450 250h100l-318 -414q18 -37 18 -86v-400q0 -83 -60 -131l360 -469h-350
l-307 400h-186z" />
    <glyph glyph-name="yen" unicode="&#xa5;" horiz-adv-x="1650" 
d="M459 900l-459 600h350l397 -517l203 267q200 250 450 250h100l-460 -600h210v-250h-350v-100h350v-250h-350v-300h-300v300h-350v250h350v100h-350v250h209z" />
    <glyph glyph-name="brokenbar" unicode="&#xa6;" horiz-adv-x="450" 
d="M300 650v-900h-300v900h300zM0 850v900h300v-900h-300z" />
    <glyph glyph-name="section" unicode="&#xa7;" 
d="M850 700v200q0 50 -50 50h-200q-50 0 -50 -50v-200q0 -50 50 -50h200q50 0 50 50zM1150 898q250 -15 250 -198v-650q0 -300 -300 -300h-800q-300 0 -300 200v50h1050q50 0 50 50v427q-82 -77 -300 -77h-250q-300 0 -300 200v52q-250 15 -250 198v700q0 200 300 200h800
q300 0 300 -200v-50h-1050q-50 0 -50 -50v-320q72 70 250 70h300q300 0 300 -200v-102z" />
    <glyph glyph-name="dieresis" unicode="&#xa8;" horiz-adv-x="950" 
d="M0 1950h300v-250h-300v250zM500 1950h300v-250h-300v250z" />
    <glyph glyph-name="copyright" unicode="&#xa9;" horiz-adv-x="1150" 
d="M691 1450q-86 50 -191 50t-191 -50h382zM150 1283q-50 -93 -50 -208t50 -208v416zM309 700q86 -50 191 -50t191 50h-382zM850 867q50 93 50 208t-50 208v-33q0 -100 -150 -100v150q0 25 -25 25h-350q-25 0 -25 -25v-450q0 -25 25 -25h350q25 0 25 25v75q0 100 150 100
v-158zM1000 1075q0 -217 -146.5 -371t-353.5 -154t-353.5 154t-146.5 371q0 218 146.5 371.5t353.5 153.5t353.5 -153.5t146.5 -371.5z" />
    <glyph glyph-name="ordfeminine" unicode="&#xaa;" horiz-adv-x="1650" 
d="M0 200v1100q0 200 200 200h1100q200 0 200 -200v-1100q0 -200 -200 -200h-1100q-200 0 -200 200zM1475 201v1099q0 175 -175 175h-1100q-174 0 -175 -175v-1100q1 -175 175 -175h1101q174 0 174 176z" />
    <glyph glyph-name="guillemotleft" unicode="&#xab;" 
d="M0 775l500 525h350l-500 -525l500 -525h-350zM550 775l500 525h350l-500 -525l500 -525h-350z" />
    <glyph glyph-name="logicalnot" unicode="&#xac;" horiz-adv-x="1177" 
d="M187 767h840v-491l-1 -1h-98v392h-741v100z" />
    <glyph glyph-name="registered" unicode="&#xae;" horiz-adv-x="1150" 
d="M804 798q96 118 96 277q0 115 -50 208v-158q0 -100 -150 -100h-59zM150 867v416q-50 -93 -50 -208t50 -208zM309 1450h382q-86 50 -191 50t-191 -50zM697 704l-322 446h300q25 0 25 25v125q0 25 -25 25h-375v-525q0 -47 -33 -72q101 -78 233 -78q109 0 197 54zM864 715
l11 -15h-25q-146 -150 -350 -150t-350 150q-2 2 -3 4q-147 154 -147 371q0 218 146.5 371.5t353.5 153.5t353.5 -153.5t146.5 -371.5q0 -209 -136 -360z" />
    <glyph glyph-name="macron" unicode="&#xaf;" horiz-adv-x="1650" 
d="M0 200v1100q0 200 200 200h1100q200 0 200 -200v-1100q0 -200 -200 -200h-1100q-200 0 -200 200zM1475 201v1099q0 175 -175 175h-1100q-174 0 -175 -175v-1100q1 -175 175 -175h1101q174 0 174 176z" />
    <glyph glyph-name="degree" unicode="&#xb0;" horiz-adv-x="1650" 
d="M0 200v1100q0 200 200 200h1100q200 0 200 -200v-1100q0 -200 -200 -200h-1100q-200 0 -200 200zM1475 201v1099q0 175 -175 175h-1100q-174 0 -175 -175v-1100q1 -175 175 -175h1101q174 0 174 176z" />
    <glyph glyph-name="plusminus" unicode="&#xb1;" horiz-adv-x="1650" 
d="M0 200v1100q0 200 200 200h1100q200 0 200 -200v-1100q0 -200 -200 -200h-1100q-200 0 -200 200zM1475 201v1099q0 175 -175 175h-1100q-174 0 -175 -175v-1100q1 -175 175 -175h1101q174 0 174 176z" />
    <glyph glyph-name="uni00B2" unicode="&#xb2;" horiz-adv-x="1650" 
d="M0 200v1100q0 200 200 200h1100q200 0 200 -200v-1100q0 -200 -200 -200h-1100q-200 0 -200 200zM1475 201v1099q0 175 -175 175h-1100q-174 0 -175 -175v-1100q1 -175 175 -175h1101q174 0 174 176z" />
    <glyph glyph-name="uni00B3" unicode="&#xb3;" horiz-adv-x="1650" 
d="M0 200v1100q0 200 200 200h1100q200 0 200 -200v-1100q0 -200 -200 -200h-1100q-200 0 -200 200zM1475 201v1099q0 175 -175 175h-1100q-174 0 -175 -175v-1100q1 -175 175 -175h1101q174 0 174 176z" />
    <glyph glyph-name="acute" unicode="&#xb4;" horiz-adv-x="850" 
d="M250 1650h-250l200 350h500z" />
    <glyph glyph-name="mu" unicode="&#xb5;" horiz-adv-x="1350" 
d="M900 1050q300 0 300 -200v-650q0 -200 -300 -200h-600v-300q0 -200 -300 -200v1550h300v-900q0 100 200 100h350q50 0 50 50v750z" />
    <glyph glyph-name="paragraph" unicode="&#xb6;" horiz-adv-x="1179" 
d="M1029 1435v-70h-127v-1365h-82v1365h-166v-1365h-84v738q-174 8 -275.5 102.5t-101.5 245.5q0 157 107.5 253t285.5 96h443z" />
    <glyph glyph-name="periodcentered" unicode="&#xb7;" horiz-adv-x="450" 
d="M0 900h300v-250h-300v250z" />
    <glyph glyph-name="periodcentered" unicode="&#x2219;" horiz-adv-x="450" 
d="M0 900h300v-250h-300v250z" />
    <glyph glyph-name="cedilla" unicode="&#xb8;" horiz-adv-x="900" 
d="M400 -150q50 0 50 50v350h300v-450q0 -200 -300 -200h-450v50q0 200 300 200h100z" />
    <glyph glyph-name="uni00B9" unicode="&#xb9;" horiz-adv-x="1600" 
d="M-50 200v1100q0 200 200 200h1100q200 0 200 -200v-1100q0 -200 -200 -200h-1100q-200 0 -200 200zM1425 201v1099q0 175 -175 175h-1100q-174 0 -175 -175v-1100q1 -175 175 -175h1101q174 0 174 176z" />
    <glyph glyph-name="ordmasculine" unicode="&#xba;" horiz-adv-x="1650" 
d="M0 200v1100q0 200 200 200h1100q200 0 200 -200v-1100q0 -200 -200 -200h-1100q-200 0 -200 200zM1475 201v1099q0 175 -175 175h-1100q-174 0 -175 -175v-1100q1 -175 175 -175h1101q174 0 174 176z" />
    <glyph glyph-name="guillemotright" unicode="&#xbb;" 
d="M900 250h-350l500 525l-500 525h350l500 -525zM350 250h-350l500 525l-500 525h350l500 -525z" />
    <glyph glyph-name="onequarter" unicode="&#xbc;" horiz-adv-x="1650" 
d="M0 200v1100q0 200 200 200h1100q200 0 200 -200v-1100q0 -200 -200 -200h-1100q-200 0 -200 200zM1475 201v1099q0 175 -175 175h-1100q-174 0 -175 -175v-1100q1 -175 175 -175h1101q174 0 174 176z" />
    <glyph glyph-name="onehalf" unicode="&#xbd;" horiz-adv-x="1650" 
d="M0 200v1100q0 200 200 200h1100q200 0 200 -200v-1100q0 -200 -200 -200h-1100q-200 0 -200 200zM1475 201v1099q0 175 -175 175h-1100q-174 0 -175 -175v-1100q1 -175 175 -175h1101q174 0 174 176z" />
    <glyph glyph-name="threequarters" unicode="&#xbe;" horiz-adv-x="1650" 
d="M0 200v1100q0 200 200 200h1100q200 0 200 -200v-1100q0 -200 -200 -200h-1100q-200 0 -200 200zM1475 201v1099q0 175 -175 175h-1100q-174 0 -175 -175v-1100q1 -175 175 -175h1101q174 0 174 176z" />
    <glyph glyph-name="questiondown" unicode="&#xbf;" horiz-adv-x="1350" 
d="M300 850h250q50 0 50 50v50q0 200 300 200v-250q0 -300 -300 -300h-250q-50 0 -50 -50v-250q0 -50 50 -50h850v-50q0 -200 -300 -200h-600q-300 0 -300 200v450q0 200 300 200zM900 1250h-300v250h300v-250z" />
    <glyph glyph-name="Agrave" unicode="&#xc0;" 
d="M1100 600h-800v-400q0 -200 -300 -200v1300q0 200 300 200h1100v-1500h-300v600zM1100 1250h-800v-400h800v400zM350 2000h500l200 -350h-250z" />
    <glyph glyph-name="Aacute" unicode="&#xc1;" 
d="M1100 600h-800v-400q0 -200 -300 -200v1300q0 200 300 200h1100v-1500h-300v600zM1100 1250h-800v-400h800v400zM600 1650h-250l200 350h500z" />
    <glyph glyph-name="Acircumflex" unicode="&#xc2;" 
d="M1100 600h-800v-400q0 -200 -300 -200v1300q0 200 300 200h1100v-1500h-300v600zM1100 1250h-800v-400h800v400zM700 2050l400 -200v-250l-400 200l-400 -200v250z" />
    <glyph glyph-name="Atilde" unicode="&#xc3;" 
d="M1100 600h-800v-400q0 -200 -300 -200v1300q0 200 300 200h1100v-1500h-300v600zM1100 1250h-800v-400h800v400zM1200 2050v-250q-50 -50 -150 -100t-200 -50q-50 0 -150 50t-150 50q-100 0 -200 -50t-150 -100v250q50 50 150 100t200 50q50 0 150 -50t150 -50
q100 0 200 50t150 100z" />
    <glyph glyph-name="Adieresis" unicode="&#xc4;" 
d="M1100 600h-800v-400q0 -200 -300 -200v1300q0 200 300 200h1100v-1500h-300v600zM1100 1250h-800v-400h800v400zM300 1950h300v-250h-300v250zM800 1950h300v-250h-300v250z" />
    <glyph glyph-name="Aring" unicode="&#xc5;" 
d="M1100 600h-800v-400q0 -200 -300 -200v1300q0 200 300 200h1100v-1500h-300v600zM1100 1250h-800v-400h800v400zM700 1600q-104 0 -177 88t-73 212t73 212t177 88t177 -88t73 -212t-73 -212t-177 -88zM700 2000q-41 0 -70.5 -29.5t-29.5 -70.5t29.5 -70.5t70.5 -29.5
t70.5 29.5t29.5 70.5t-29.5 70.5t-70.5 29.5z" />
    <glyph glyph-name="AE" unicode="&#xc6;" horiz-adv-x="2650" 
d="M1100 1250h-800v-400h800v400zM1100 0v600h-800v-400q0 -200 -300 -200v1300q0 200 300 200h1900q300 0 300 -200v-50h-1100v-350h1000v-50q0 -200 -300 -200h-700v-400h1100v-50q0 -200 -300 -200h-1100z" />
    <glyph glyph-name="Ccedilla" unicode="&#xc7;" 
d="M800 0h-500q-300 0 -300 200v1100q0 200 300 200h800q300 0 300 -200v-200q0 -200 -300 -200v300q0 50 -50 50h-700q-50 0 -50 -50v-900q0 -50 50 -50h700q50 0 50 50v150q0 200 300 200v-450q0 -200 -300 -200v-200q0 -200 -300 -200h-450v50q0 200 300 200h100
q50 0 50 50v100z" />
    <glyph glyph-name="Egrave" unicode="&#xc8;" 
d="M300 250h1100v-50q0 -200 -300 -200h-800q-300 0 -300 200v1100q0 200 300 200h800q300 0 300 -200v-50h-1100v-350h1000v-50q0 -200 -300 -200h-700v-400zM350 2000h500l200 -350h-250z" />
    <glyph glyph-name="Eacute" unicode="&#xc9;" 
d="M300 250h1100v-50q0 -200 -300 -200h-800q-300 0 -300 200v1100q0 200 300 200h800q300 0 300 -200v-50h-1100v-350h1000v-50q0 -200 -300 -200h-700v-400zM600 1650h-250l200 350h500z" />
    <glyph glyph-name="Ecircumflex" unicode="&#xca;" 
d="M300 250h1100v-50q0 -200 -300 -200h-800q-300 0 -300 200v1100q0 200 300 200h800q300 0 300 -200v-50h-1100v-350h1000v-50q0 -200 -300 -200h-700v-400zM700 2050l400 -200v-250l-400 200l-400 -200v250z" />
    <glyph glyph-name="Edieresis" unicode="&#xcb;" 
d="M300 250h1100v-50q0 -200 -300 -200h-800q-300 0 -300 200v1100q0 200 300 200h800q300 0 300 -200v-50h-1100v-350h1000v-50q0 -200 -300 -200h-700v-400zM300 1950h300v-250h-300v250zM800 1950h300v-250h-300v250z" />
    <glyph glyph-name="Igrave" unicode="&#xcc;" horiz-adv-x="650" 
d="M0 1500h300v-1300q0 -200 -300 -200v1500zM-200 2000h500l200 -350h-250z" />
    <glyph glyph-name="Iacute" unicode="&#xcd;" horiz-adv-x="650" 
d="M0 1500h300v-1300q0 -200 -300 -200v1500zM50 1650h-250l200 350h500z" />
    <glyph glyph-name="Icircumflex" unicode="&#xce;" horiz-adv-x="700" 
d="M0 1500h300v-1300q0 -200 -300 -200v1500zM150 2050l400 -200v-250l-400 200l-400 -200v250z" />
    <glyph glyph-name="Idieresis" unicode="&#xcf;" horiz-adv-x="700" 
d="M0 1500h300v-1300q0 -200 -300 -200v1500zM-250 1950h300v-250h-300v250zM250 1950h300v-250h-300v250z" />
    <glyph glyph-name="Eth" unicode="&#xd0;" 
d="M400 800v-500q0 -50 50 -50h600q50 0 50 50v900q0 50 -50 50h-650q-300 0 -300 200v50h1000q300 0 300 -200v-1100q0 -200 -300 -200h-1000v800h-100v250h500v-250h-100z" />
    <glyph glyph-name="Ntilde" unicode="&#xd1;" 
d="M1100 450v850q0 200 300 200v-1500h-100q-250 0 -400 200l-600 850v-1050h-300v1500h100q250 0 401 -200zM1200 2050v-250q-50 -50 -150 -100t-200 -50q-50 0 -150 50t-150 50q-100 0 -200 -50t-150 -100v250q50 50 150 100t200 50q50 0 150 -50t150 -50q100 0 200 50
t150 100z" />
    <glyph glyph-name="Ograve" unicode="&#xd2;" 
d="M1400 200q0 -200 -300 -200h-800q-300 0 -300 200v1100q0 200 300 200h800q300 0 300 -200v-1100zM1100 300v900q0 50 -50 50h-700q-50 0 -50 -50v-900q0 -50 50 -50h700q50 0 50 50zM350 2000h500l200 -350h-250z" />
    <glyph glyph-name="Oacute" unicode="&#xd3;" 
d="M1400 200q0 -200 -300 -200h-800q-300 0 -300 200v1100q0 200 300 200h800q300 0 300 -200v-1100zM1100 300v900q0 50 -50 50h-700q-50 0 -50 -50v-900q0 -50 50 -50h700q50 0 50 50zM600 1650h-250l200 350h500z" />
    <glyph glyph-name="Ocircumflex" unicode="&#xd4;" 
d="M1400 200q0 -200 -300 -200h-800q-300 0 -300 200v1100q0 200 300 200h800q300 0 300 -200v-1100zM1100 300v900q0 50 -50 50h-700q-50 0 -50 -50v-900q0 -50 50 -50h700q50 0 50 50zM700 2050l400 -200v-250l-400 200l-400 -200v250z" />
    <glyph glyph-name="Otilde" unicode="&#xd5;" 
d="M1400 200q0 -200 -300 -200h-800q-300 0 -300 200v1100q0 200 300 200h800q300 0 300 -200v-1100zM1100 300v900q0 50 -50 50h-700q-50 0 -50 -50v-900q0 -50 50 -50h700q50 0 50 50zM1200 2050v-250q-50 -50 -150 -100t-200 -50q-50 0 -150 50t-150 50q-100 0 -200 -50
t-150 -100v250q50 50 150 100t200 50q50 0 150 -50t150 -50q100 0 200 50t150 100z" />
    <glyph glyph-name="Odieresis" unicode="&#xd6;" 
d="M1400 200q0 -200 -300 -200h-800q-300 0 -300 200v1100q0 200 300 200h800q300 0 300 -200v-1100zM1100 300v900q0 50 -50 50h-700q-50 0 -50 -50v-900q0 -50 50 -50h700q50 0 50 50zM300 1950h300v-250h-300v250zM800 1950h300v-250h-300v250z" />
    <glyph glyph-name="multiply" unicode="&#xd7;" horiz-adv-x="1150" 
d="M325 775l-325 575h350l150 -265l150 265h350l-325 -575l325 -575h-350l-150 265l-150 -265h-350z" />
    <glyph glyph-name="Oslash" unicode="&#xd8;" 
d="M600 250h450q50 0 50 50v859zM800 1250h-450q-50 0 -50 -50v-859zM1400 200q0 -200 -300 -200h-800q-300 0 -300 200v1100q0 200 300 200h800q300 0 300 -200v-1100z" />
    <glyph glyph-name="Ugrave" unicode="&#xd9;" 
d="M300 300q0 -50 50 -50h700q50 0 50 50v1200h300v-1300q0 -200 -300 -200h-800q-300 0 -300 200v1300q300 0 300 -200v-1000zM350 2000h500l200 -350h-250z" />
    <glyph glyph-name="Uacute" unicode="&#xda;" 
d="M300 300q0 -50 50 -50h700q50 0 50 50v1200h300v-1300q0 -200 -300 -200h-800q-300 0 -300 200v1300q300 0 300 -200v-1000zM600 1650h-250l200 350h500z" />
    <glyph glyph-name="Ucircumflex" unicode="&#xdb;" 
d="M300 300q0 -50 50 -50h700q50 0 50 50v1200h300v-1300q0 -200 -300 -200h-800q-300 0 -300 200v1300q300 0 300 -200v-1000zM700 2050l400 -200v-250l-400 200l-400 -200v250z" />
    <glyph glyph-name="Udieresis" unicode="&#xdc;" 
d="M300 300q0 -50 50 -50h700q50 0 50 50v1200h300v-1300q0 -200 -300 -200h-800q-300 0 -300 200v1300q300 0 300 -200v-1000zM300 1950h300v-250h-300v250zM800 1950h300v-250h-300v250z" />
    <glyph glyph-name="Yacute" unicode="&#xdd;" 
d="M1050 250q50 0 50 50v300h-800q-300 0 -300 200v700q300 0 300 -200v-350q0 -50 50 -50h700q50 0 50 50v550h300v-1300q0 -200 -300 -200h-800v50q0 200 300 200h450zM600 1650h-250l200 350h500z" />
    <glyph glyph-name="Thorn" unicode="&#xde;" 
d="M300 1250h800q300 0 300 -200v-600q0 -200 -300 -200h-600v50q0 200 300 200h250q50 0 50 50v400q0 50 -50 50h-750v-800q0 -200 -300 -200v1300q0 200 300 200v-250z" />
    <glyph glyph-name="germandbls" unicode="&#xdf;" 
d="M300 -50q0 -200 -300 -200v1750h1100q300 0 300 -200v-240q0 -110 -150 -160q150 -50 150 -150v-550q0 -200 -300 -200h-300q-300 0 -300 250h550q50 0 50 50v350h-300q-300 0 -300 200v50h600v300q0 50 -50 50h-750v-1300z" />
    <glyph glyph-name="agrave" unicode="&#xe0;" horiz-adv-x="1350" 
d="M900 650v100q0 50 -50 50h-750v50q0 200 300 200h500q300 0 300 -200v-850h-300v100q-50 -100 -200 -100h-400q-300 0 -300 200v250q0 200 300 200h600zM900 500q-35 -100 -200 -100h-350q-50 0 -50 -50v-100h600v250zM250 1550h500l200 -350h-250z" />
    <glyph glyph-name="aacute" unicode="&#xe1;" horiz-adv-x="1350" 
d="M900 650v100q0 50 -50 50h-750v50q0 200 300 200h500q300 0 300 -200v-850h-300v100q-50 -100 -200 -100h-400q-300 0 -300 200v250q0 200 300 200h600zM900 500q-35 -100 -200 -100h-350q-50 0 -50 -50v-100h600v250zM500 1200h-250l200 350h500z" />
    <glyph glyph-name="acircumflex" unicode="&#xe2;" horiz-adv-x="1350" 
d="M900 650v100q0 50 -50 50h-750v50q0 200 300 200h500q300 0 300 -200v-850h-300v100q-50 -100 -200 -100h-400q-300 0 -300 200v250q0 200 300 200h600zM900 500q-35 -100 -200 -100h-350q-50 0 -50 -50v-100h600v250zM600 1600l400 -200v-250l-400 200l-400 -200v250z
" />
    <glyph glyph-name="atilde" unicode="&#xe3;" horiz-adv-x="1350" 
d="M900 650v100q0 50 -50 50h-750v50q0 200 300 200h500q300 0 300 -200v-850h-300v100q-50 -100 -200 -100h-400q-300 0 -300 200v250q0 200 300 200h600zM900 500q-35 -100 -200 -100h-350q-50 0 -50 -50v-100h600v250zM1100 1600v-250q-50 -50 -150 -100t-200 -50
q-50 0 -150 50t-150 50q-100 0 -200 -50t-150 -100v250q50 50 150 100t200 50q50 0 150 -50t150 -50q100 0 200 50t150 100z" />
    <glyph glyph-name="adieresis" unicode="&#xe4;" horiz-adv-x="1350" 
d="M900 650v100q0 50 -50 50h-750v50q0 200 300 200h500q300 0 300 -200v-850h-300v100q-50 -100 -200 -100h-400q-300 0 -300 200v250q0 200 300 200h600zM900 500q-35 -100 -200 -100h-350q-50 0 -50 -50v-100h600v250zM200 1500h300v-250h-300v250zM700 1500h300v-250
h-300v250z" />
    <glyph glyph-name="aring" unicode="&#xe5;" horiz-adv-x="1350" 
d="M600 1100q-104 0 -177 88t-73 212t73 212t177 88t177 -88t73 -212t-73 -212t-177 -88zM600 1500q-41 0 -70.5 -29.5t-29.5 -70.5t29.5 -70.5t70.5 -29.5t70.5 29.5t29.5 70.5t-29.5 70.5t-70.5 29.5zM900 650v100q0 50 -50 50h-750v50q0 200 300 200h500q300 0 300 -200
v-850h-300v100q-50 -100 -200 -100h-400q-300 0 -300 200v250q0 200 300 200h600zM900 500q-35 -100 -200 -100h-350q-50 0 -50 -50v-100h600v250z" />
    <glyph glyph-name="ae" unicode="&#xe6;" horiz-adv-x="2250" 
d="M900 500q-35 -100 -200 -100h-350q-50 0 -50 -50v-100h600v250zM1200 550q0 100 200 100h350q50 0 50 50v50q0 50 -49 50h-501q-50 0 -50 -50v-200zM900 0v100q-50 -100 -200 -100h-400q-300 0 -300 200v250q0 200 300 200h600v100q0 50 -50 50h-750v50q0 200 300 200
h500q88 0 150 -17q62 17 150 17h600q265 0 300 -200v-250q0 -200 -300 -200h-600v-100q0 -50 50 -50h750v-50q0 -200 -300 -200h-800z" />
    <glyph glyph-name="ccedilla" unicode="&#xe7;" horiz-adv-x="1350" 
d="M600 0h-300q-300 0 -300 200v650q0 200 300 200h600q300 0 300 -200v-50h-850q-50 0 -50 -50v-450q0 -50 50 -50h850v-50q0 -200 -300 -200v-200q0 -200 -300 -200h-450v50q0 200 300 200h100q50 0 50 50v100z" />
    <glyph glyph-name="egrave" unicode="&#xe8;" horiz-adv-x="1350" 
d="M300 400v-100q0 -50 50 -50h750v-50q0 -200 -300 -200h-500q-300 0 -300 200v650q0 200 300 200h600q265 0 300 -200v-250q0 -200 -300 -200h-600zM300 550q0 100 200 100h350q50 0 50 50v50q0 50 -49 50h-501q-50 0 -50 -50v-200zM250 1550h500l200 -350h-250z" />
    <glyph glyph-name="eacute" unicode="&#xe9;" horiz-adv-x="1350" 
d="M500 1200h-250l200 350h500zM300 400v-100q0 -50 50 -50h750v-50q0 -200 -300 -200h-500q-300 0 -300 200v650q0 200 300 200h600q265 0 300 -200v-250q0 -200 -300 -200h-600zM300 550q0 100 200 100h350q50 0 50 50v50q0 50 -49 50h-501q-50 0 -50 -50v-200z" />
    <glyph glyph-name="ecircumflex" unicode="&#xea;" horiz-adv-x="1350" 
d="M600 1600l400 -200v-250l-400 200l-400 -200v250zM300 400v-100q0 -50 50 -50h750v-50q0 -200 -300 -200h-500q-300 0 -300 200v650q0 200 300 200h600q265 0 300 -200v-250q0 -200 -300 -200h-600zM300 550q0 100 200 100h350q50 0 50 50v50q0 50 -49 50h-501
q-50 0 -50 -50v-200z" />
    <glyph glyph-name="edieresis" unicode="&#xeb;" horiz-adv-x="1350" 
d="M200 1500h300v-250h-300v250zM700 1500h300v-250h-300v250zM300 400v-100q0 -50 50 -50h750v-50q0 -200 -300 -200h-500q-300 0 -300 200v650q0 200 300 200h600q265 0 300 -200v-250q0 -200 -300 -200h-600zM300 550q0 100 200 100h350q50 0 50 50v50q0 50 -49 50h-501
q-50 0 -50 -50v-200z" />
    <glyph glyph-name="igrave" unicode="&#xec;" horiz-adv-x="650" 
d="M0 1050h300v-850q0 -200 -300 -200v1050zM-200 1550h500l200 -350h-250z" />
    <glyph glyph-name="iacute" unicode="&#xed;" horiz-adv-x="650" 
d="M0 1050h300v-850q0 -200 -300 -200v1050zM50 1200h-250l200 350h500z" />
    <glyph glyph-name="icircumflex" unicode="&#xee;" horiz-adv-x="700" 
d="M0 1050h300v-850q0 -200 -300 -200v1050zM150 1600l400 -200v-250l-400 200l-400 -200v250z" />
    <glyph glyph-name="idieresis" unicode="&#xef;" horiz-adv-x="700" 
d="M0 1050h300v-850q0 -200 -300 -200v1050zM-250 1500h300v-250h-300v250zM250 1500h300v-250h-300v250z" />
    <glyph glyph-name="eth" unicode="&#xf0;" horiz-adv-x="1350" 
d="M800 800h-450q-50 0 -50 -50v-450q0 -50 50 -50h450v550zM800 1150h-600v50q0 200 300 200h300v100h300v-450h100v-250h-100v-800h-300v100q-50 -100 -200 -100h-300q-300 0 -300 200v650q0 200 300 200h500v100z" />
    <glyph glyph-name="ntilde" unicode="&#xf1;" horiz-adv-x="1350" 
d="M900 0v750q0 50 -50 50h-550v-800q-300 0 -300 200v850h300v-100q50 100 200 100h400q300 0 300 -300v-550q0 -200 -300 -200zM1100 1600v-250q-50 -50 -150 -100t-200 -50q-50 0 -150 50t-150 50q-100 0 -200 -50t-150 -100v250q50 50 150 100t200 50q50 0 150 -50
t150 -50q100 0 200 50t150 100z" />
    <glyph glyph-name="ograve" unicode="&#xf2;" horiz-adv-x="1350" 
d="M1200 200q0 -200 -350 -200h-550q-300 0 -300 200v650q0 200 300 200h600q300 0 300 -200v-650zM900 300v450q0 50 -50 50h-500q-50 0 -50 -50v-450q0 -50 50 -50h500q50 0 50 50zM250 1550h500l200 -350h-250z" />
    <glyph glyph-name="oacute" unicode="&#xf3;" horiz-adv-x="1350" 
d="M1200 200q0 -200 -350 -200h-550q-300 0 -300 200v650q0 200 300 200h600q300 0 300 -200v-650zM900 300v450q0 50 -50 50h-500q-50 0 -50 -50v-450q0 -50 50 -50h500q50 0 50 50zM500 1200h-250l200 350h500z" />
    <glyph glyph-name="ocircumflex" unicode="&#xf4;" horiz-adv-x="1350" 
d="M1200 200q0 -200 -350 -200h-550q-300 0 -300 200v650q0 200 300 200h600q300 0 300 -200v-650zM900 300v450q0 50 -50 50h-500q-50 0 -50 -50v-450q0 -50 50 -50h500q50 0 50 50zM600 1600l400 -200v-250l-400 200l-400 -200v250z" />
    <glyph glyph-name="otilde" unicode="&#xf5;" horiz-adv-x="1350" 
d="M1200 200q0 -200 -350 -200h-550q-300 0 -300 200v650q0 200 300 200h600q300 0 300 -200v-650zM900 300v450q0 50 -50 50h-500q-50 0 -50 -50v-450q0 -50 50 -50h500q50 0 50 50zM1100 1600v-250q-50 -50 -150 -100t-200 -50q-50 0 -150 50t-150 50q-100 0 -200 -50
t-150 -100v250q50 50 150 100t200 50q50 0 150 -50t150 -50q100 0 200 50t150 100z" />
    <glyph glyph-name="odieresis" unicode="&#xf6;" horiz-adv-x="1350" 
d="M1200 200q0 -200 -350 -200h-550q-300 0 -300 200v650q0 200 300 200h600q300 0 300 -200v-650zM900 300v450q0 50 -50 50h-500q-50 0 -50 -50v-450q0 -50 50 -50h500q50 0 50 50zM200 1500h300v-250h-300v250zM700 1500h300v-250h-300v250z" />
    <glyph glyph-name="divide" unicode="&#xf7;" horiz-adv-x="1150" 
d="M0 650v250h1000v-250h-1000zM350 1300h300v-250h-300v250zM350 500h300v-250h-300v250z" />
    <glyph glyph-name="oslash" unicode="&#xf8;" horiz-adv-x="1350" 
d="M600 250h250q50 0 50 50v421zM600 800h-250q-50 0 -50 -50v-421zM1200 200q0 -200 -350 -200h-550q-300 0 -300 200v650q0 200 300 200h600q300 0 300 -200v-650z" />
    <glyph glyph-name="ugrave" unicode="&#xf9;" horiz-adv-x="1350" 
d="M300 1050v-750q0 -50 50 -50h550v800h300v-1050h-300v100q-50 -100 -200 -100h-400q-300 0 -300 200v650q0 200 300 200zM250 1550h500l200 -350h-250z" />
    <glyph glyph-name="uacute" unicode="&#xfa;" horiz-adv-x="1350" 
d="M300 1050v-750q0 -50 50 -50h550v800h300v-1050h-300v100q-50 -100 -200 -100h-400q-300 0 -300 200v650q0 200 300 200zM500 1200h-250l200 350h500z" />
    <glyph glyph-name="ucircumflex" unicode="&#xfb;" horiz-adv-x="1350" 
d="M300 1050v-750q0 -50 50 -50h550v800h300v-1050h-300v100q-50 -100 -200 -100h-400q-300 0 -300 200v650q0 200 300 200zM600 1600l400 -200v-250l-400 200l-400 -200v250z" />
    <glyph glyph-name="udieresis" unicode="&#xfc;" horiz-adv-x="1350" 
d="M300 1050v-750q0 -50 50 -50h550v800h300v-1050h-300v100q-50 -100 -200 -100h-400q-300 0 -300 200v650q0 200 300 200zM200 1500h300v-250h-300v250zM700 1500h300v-250h-300v250z" />
    <glyph glyph-name="yacute" unicode="&#xfd;" horiz-adv-x="1350" 
d="M850 -250q50 0 50 50v300q-25 -100 -200 -100h-400q-300 0 -300 300v750q300 0 300 -200v-550q0 -50 50 -50h500q50 0 50 50v750h300v-1300q0 -250 -300 -250h-800v50q0 200 300 200h450zM500 1200h-250l200 350h500z" />
    <glyph glyph-name="thorn" unicode="&#xfe;" horiz-adv-x="1350" 
d="M300 150q0 100 200 100h350q50 0 50 50v450q0 50 -50 50h-550v-650zM300 950q50 100 200 100h400q300 0 300 -200v-650q0 -200 -300 -200h-600v-300q0 -200 -300 -200v1800q0 200 300 200v-550z" />
    <glyph glyph-name="ydieresis" unicode="&#xff;" horiz-adv-x="1350" 
d="M850 -250q50 0 50 50v300q-25 -100 -200 -100h-400q-300 0 -300 300v750q300 0 300 -200v-550q0 -50 50 -50h500q50 0 50 50v750h300v-1300q0 -250 -300 -250h-800v50q0 200 300 200h450zM200 1500h300v-250h-300v250zM700 1500h300v-250h-300v250z" />
    <glyph glyph-name="Aogonek" unicode="&#x104;" 
d="M1100 1250h-800v-400h800v400zM1100 250v350h-800v-400q0 -200 -300 -200v1300q0 200 300 200h1100v-1500h-350v-100q0 -50 50 -50q300 0 300 -200v-50h-350q-300 0 -300 200v250q0 200 300 200h50z" />
    <glyph glyph-name="aogonek" unicode="&#x105;" horiz-adv-x="1350" 
d="M900 500q-35 -100 -200 -100h-350q-50 0 -50 -50v-100h600v250zM550 0h-250q-300 0 -300 200v250q0 200 300 200h600v100q0 50 -50 50h-750v50q0 200 300 200h500q300 0 300 -200v-850h-350v-100q0 -50 50 -50q300 0 300 -200v-50h-350q-300 0 -300 200v200z" />
    <glyph glyph-name="Cacute" unicode="&#x106;" 
d="M1100 1200q0 50 -50 50h-700q-50 0 -50 -50v-900q0 -50 50 -50h700q50 0 50 50v150q0 200 300 200v-350q0 -300 -300 -300h-800q-300 0 -300 200v1100q0 200 300 200h800q300 0 300 -200v-200q0 -200 -300 -200v300zM600 1650h-250l200 350h500z" />
    <glyph glyph-name="cacute" unicode="&#x107;" horiz-adv-x="1350" 
d="M350 800q-50 0 -50 -50v-450q0 -50 50 -50h850v-50q0 -200 -300 -200h-600q-300 0 -300 200v650q0 200 300 200h600q300 0 300 -200v-50h-850zM500 1200h-250l200 350h500z" />
    <glyph glyph-name="Eogonek" unicode="&#x118;" 
d="M750 0h-450q-300 0 -300 200v1100q0 200 300 200h800q300 0 300 -200v-50h-1100v-350h1000v-50q0 -200 -300 -200h-700v-400h1100v-50q0 -200 -300 -200h-50v-100q0 -50 50 -50q300 0 300 -200v-50h-350q-300 0 -300 200v200z" />
    <glyph glyph-name="eogonek" unicode="&#x119;" horiz-adv-x="1350" 
d="M300 550q0 100 200 100h350q50 0 50 50v50q0 50 -49 50h-501q-50 0 -50 -50v-200zM500 0h-200q-300 0 -300 200v650q0 200 300 200h600q265 0 300 -200v-250q0 -200 -300 -200h-600v-100q0 -50 50 -50h750v-50q0 -200 -300 -200v-100q0 -50 50 -50q300 0 300 -200v-50
h-350q-300 0 -300 200v200z" />
    <glyph glyph-name="dotlessi" unicode="&#x131;" horiz-adv-x="450" 
d="M0 1050h300v-850q0 -200 -300 -200v1050z" />
    <glyph glyph-name="Lslash" unicode="&#x141;" 
d="M400 650v-400h1000v-50q0 -200 -300 -200h-700q-300 0 -300 200v450h-100v250h100v400q0 200 300 200v-600h200v-250h-200z" />
    <glyph glyph-name="lslash" unicode="&#x142;" horiz-adv-x="750" 
d="M400 650v-650h-300v650h-100v250h100v400q0 200 300 200v-600h200v-250h-200z" />
    <glyph glyph-name="Nacute" unicode="&#x143;" 
d="M1100 450v850q0 200 300 200v-1500h-100q-250 0 -400 200l-600 850v-1050h-300v1500h100q250 0 401 -200zM600 1650h-250l200 350h500z" />
    <glyph glyph-name="nacute" unicode="&#x144;" horiz-adv-x="1350" 
d="M900 0v750q0 50 -50 50h-550v-800q-300 0 -300 200v850h300v-100q50 100 200 100h400q300 0 300 -300v-550q0 -200 -300 -200zM500 1200h-250l200 350h500z" />
    <glyph glyph-name="OE" unicode="&#x152;" horiz-adv-x="2650" 
d="M1100 300v900q0 50 -50 50h-700q-50 0 -50 -50v-900q0 -50 50 -50h700q50 0 50 50zM1250 17q-62 -17 -150 -17h-800q-300 0 -300 200v1100q0 200 300 200h800q88 0 150 -17q62 17 150 17h800q300 0 300 -200v-50h-1100v-350h1000v-50q0 -200 -300 -200h-700v-400h1100
v-50q0 -200 -300 -200h-800q-88 0 -150 17z" />
    <glyph glyph-name="oe" unicode="&#x153;" horiz-adv-x="2300" 
d="M950 300v450q0 50 -50 50h-550q-50 0 -50 -50v-450q0 -50 50 -50h550q50 0 50 50zM1250 550q0 100 200 100h350q50 0 50 50v50q0 50 -49 50h-501q-50 0 -50 -50v-200zM1088 21q-76 -21 -188 -21h-600q-300 0 -300 200v650q0 200 300 200h650q88 0 150 -17q62 17 150 17
h600q265 0 300 -200v-250q0 -200 -300 -200h-600v-100q0 -50 50 -50h750v-50q0 -200 -300 -200h-500q-96 0 -162 21z" />
    <glyph glyph-name="Sacute" unicode="&#x15a;" 
d="M1400 700v-400q0 -300 -300 -300h-800q-300 0 -300 200v50h1050q50 0 50 50v300q0 50 -50 50h-750q-300 0 -300 200v450q0 200 300 200h800q300 0 300 -200v-50h-1050q-50 0 -50 -50v-250q0 -50 50 -50h750q300 0 300 -200zM600 1650h-250l200 350h500z" />
    <glyph glyph-name="sacute" unicode="&#x15b;" horiz-adv-x="1350" 
d="M1200 450v-250q0 -200 -300 -200h-600q-300 0 -300 200v50h850q50 0 50 50v50q0 50 -50 50h-550q-300 0 -300 200v250q0 200 300 200h500q300 0 300 -200v-50h-750q-50 0 -50 -50v-50q0 -50 50 -50h550q300 0 300 -200zM500 1200h-250l200 350h500z" />
    <glyph glyph-name="Zacute" unicode="&#x179;" 
d="M200 450l800 800h-600q-400 0 -400 200v50h1400v-100q0 -150 -200 -350l-800 -800h700q300 0 300 -200v-50h-1400v100q0 150 200 350zM600 1650h-250l200 350h500z" />
    <glyph glyph-name="zacute" unicode="&#x17a;" horiz-adv-x="1350" 
d="M100 350l650 450h-450q-300 0 -300 200v50h1200v-150q0 -150 -100 -200l-650 -450h350q400 0 400 -200v-50h-1200v150q0 150 100 200zM500 1200h-250l200 350h500z" />
    <glyph glyph-name="Zdotaccent" unicode="&#x17b;" 
d="M200 450l800 800h-600q-400 0 -400 200v50h1400v-100q0 -150 -200 -350l-800 -800h700q300 0 300 -200v-50h-1400v100q0 150 200 350zM550 1950h300v-250h-300v250z" />
    <glyph glyph-name="zdotaccent" unicode="&#x17c;" horiz-adv-x="1350" 
d="M100 350l650 450h-450q-300 0 -300 200v50h1200v-150q0 -150 -100 -200l-650 -450h350q400 0 400 -200v-50h-1200v150q0 150 100 200zM450 1500h300v-250h-300v250z" />
    <glyph glyph-name="circumflex" unicode="&#x2c6;" horiz-adv-x="950" 
d="M400 2050l400 -200v-250l-400 200l-400 -200v250z" />
    <glyph glyph-name="caron" unicode="&#x2c7;" horiz-adv-x="950" 
d="M400 1600l-400 200v250l400 -200l400 200v-250z" />
    <glyph glyph-name="uni02C9" unicode="&#x2c9;" horiz-adv-x="1650" 
d="M0 200v1100q0 200 200 200h1100q200 0 200 -200v-1100q0 -200 -200 -200h-1100q-200 0 -200 200zM1475 201v1099q0 175 -175 175h-1100q-174 0 -175 -175v-1100q1 -175 175 -175h1101q174 0 174 176z" />
    <glyph glyph-name="breve" unicode="&#x2d8;" horiz-adv-x="1650" 
d="M0 200v1100q0 200 200 200h1100q200 0 200 -200v-1100q0 -200 -200 -200h-1100q-200 0 -200 200zM1475 201v1099q0 175 -175 175h-1100q-174 0 -175 -175v-1100q1 -175 175 -175h1101q174 0 174 176z" />
    <glyph glyph-name="dotaccent" unicode="&#x2d9;" horiz-adv-x="450" 
d="M0 1950h300v-250h-300v250z" />
    <glyph glyph-name="ring" unicode="&#x2da;" horiz-adv-x="650" 
d="M250 1600q-104 0 -177 88t-73 212t73 212t177 88t177 -88t73 -212t-73 -212t-177 -88zM250 2000q-41 0 -70.5 -29.5t-29.5 -70.5t29.5 -70.5t70.5 -29.5t70.5 29.5t29.5 70.5t-29.5 70.5t-70.5 29.5z" />
    <glyph glyph-name="ogonek" unicode="&#x2db;" horiz-adv-x="750" 
d="M650 -350v-50h-350q-300 0 -300 200v450h300v-350q0 -50 50 -50q300 0 300 -200z" />
    <glyph glyph-name="tilde" unicode="&#x2dc;" horiz-adv-x="1150" 
d="M1000 2050v-250q-50 -50 -150 -100t-200 -50q-50 0 -150 50t-150 50q-100 0 -200 -50t-150 -100v250q50 50 150 100t200 50q50 0 150 -50t150 -50q100 0 200 50t150 100z" />
    <glyph glyph-name="hungarumlaut" unicode="&#x2dd;" horiz-adv-x="1250" 
d="M100 1700h400v-300q0 -300 -400 -300v600zM700 1700h400v-300q0 -300 -400 -300v600z" />
    <glyph glyph-name="endash" unicode="&#x2013;" horiz-adv-x="1350" 
d="M0 650v250h1200v-250h-1200z" />
    <glyph glyph-name="emdash" unicode="&#x2014;" 
d="M0 650v250h1400v-250h-1400z" />
    <glyph glyph-name="quoteleft" unicode="&#x2018;" horiz-adv-x="450" 
d="M300 1000h-300v300q0 200 300 200v-500z" />
    <glyph glyph-name="quoteright" unicode="&#x2019;" horiz-adv-x="450" 
d="M0 1500h300v-300q0 -200 -300 -200v500z" />
    <glyph glyph-name="quotesinglbase" unicode="&#x201a;" horiz-adv-x="450" 
d="M0 250h300v-300q0 -200 -300 -200v500z" />
    <glyph glyph-name="quotedblleft" unicode="&#x201c;" horiz-adv-x="850" 
d="M700 1000h-300v300q0 200 300 200v-500zM300 1000h-300v300q0 200 300 200v-500z" />
    <glyph glyph-name="quotedblright" unicode="&#x201d;" horiz-adv-x="850" 
d="M0 1500h300v-300q0 -200 -300 -200v500zM400 1500h300v-300q0 -200 -300 -200v500z" />
    <glyph glyph-name="quotedblbase" unicode="&#x201e;" horiz-adv-x="850" 
d="M0 250h300v-300q0 -200 -300 -200v500zM400 250h300v-300q0 -200 -300 -200v500z" />
    <glyph glyph-name="dagger" unicode="&#x2020;" horiz-adv-x="1194" 
d="M586 1022q-8 97 -54 178q-57 101 -57 129q0 49 36 78.5t96 29.5q57 0 94.5 -27.5t37.5 -71.5q0 -32 -55 -137q-46 -85 -55 -179q96 8 177 54q101 57 129 57q49 0 79 -36t30 -96q0 -57 -27.5 -94.5t-72.5 -37.5q-32 0 -136 55q-85 46 -179 57q8 -176 110 -277
q-106 -460 -112 -974h-38q-6 514 -114 974q102 101 111 277q-96 -10 -178 -55q-101 -57 -129 -57q-49 0 -78.5 36t-29.5 96q0 57 27.5 94.5t71.5 37.5q32 0 137 -56q85 -46 179 -55z" />
    <glyph glyph-name="daggerdbl" unicode="&#x2021;" horiz-adv-x="1193" 
d="M628 186q94 11 179 57q104 55 136 55q45 0 72.5 -37.5t27.5 -94.5q0 -60 -30 -96t-79 -36q-28 0 -129 57q-81 46 -177 54q9 -94 55 -179q55 -105 55 -137q0 -44 -37.5 -71.5t-94.5 -27.5q-60 0 -96 29.5t-36 78.5q0 28 57 129q46 81 54 178q-94 -9 -179 -55
q-105 -56 -137 -56q-44 0 -71.5 37.5t-27.5 94.5q0 60 29.5 96t78.5 36q28 0 129 -57q82 -45 178 -55q-9 226 -111 398q102 171 111 397q-96 -10 -178 -55q-101 -57 -129 -57q-49 0 -78.5 36t-29.5 96q0 57 27.5 94.5t71.5 37.5q32 0 137 -56q85 -46 179 -55q-8 97 -54 178
q-57 101 -57 129q0 49 36 78.5t96 29.5q57 0 94.5 -27.5t37.5 -71.5q0 -32 -55 -137q-46 -85 -55 -179q96 8 177 54q101 57 129 57q49 0 79 -36t30 -96q0 -57 -27.5 -94.5t-72.5 -37.5q-32 0 -136 55q-85 46 -179 57q8 -226 110 -397q-102 -172 -110 -398z" />
    <glyph glyph-name="bullet" unicode="&#x2022;" horiz-adv-x="1058" 
d="M316 718q0 123 87 209t210 86q122 0 208.5 -86.5t86.5 -208.5t-87.5 -209.5t-209.5 -87.5q-123 0 -209 87t-86 210z" />
    <glyph glyph-name="ellipsis" unicode="&#x2026;" horiz-adv-x="1250" 
d="M0 250h300v-250h-300v250zM400 250h300v-250h-300v250zM800 250h300v-250h-300v250z" />
    <glyph glyph-name="perthousand" unicode="&#x2030;" horiz-adv-x="2150" 
d="M600 1000v200q0 50 -50 50h-200q-50 0 -50 -50v-200q0 -50 50 -50h200q50 0 50 50zM1100 300v200q0 50 -50 50h-200q-50 0 -50 -50v-200q0 -50 50 -50h200q50 0 50 50zM1700 300v200q0 50 -50 50h-200q-50 0 -50 -50v-200q0 -50 50 -50h200q50 0 50 50zM907 800h193
q88 0 150 -17q62 17 150 17h300q300 0 300 -200v-400q0 -200 -350 -200h-250q-96 0 -162 21q-76 -21 -188 -21h-250q-270 0 -297 163l-103 -163h-350l443 700h-193q-300 0 -300 200v400q0 200 300 200h300q270 0 297 -163l103 163h350z" />
    <glyph glyph-name="guilsinglleft" unicode="&#x2039;" horiz-adv-x="1000" 
d="M0 775l500 525h350l-500 -525l500 -525h-350z" />
    <glyph glyph-name="guilsinglright" unicode="&#x203a;" horiz-adv-x="1000" 
d="M350 250h-350l500 525l-500 525h350l500 -525z" />
    <glyph glyph-name="fraction" unicode="&#x2044;" horiz-adv-x="1450" 
d="M350 0h-350l950 1500h350z" />
    <glyph glyph-name="fraction" unicode="&#x2215;" horiz-adv-x="1450" 
d="M350 0h-350l950 1500h350z" />
    <glyph glyph-name="franc" unicode="&#x20a3;" 
d="M400 0v-250q0 -200 -300 -200v450h-100v250h100v1050q0 200 300 200h700q300 0 300 -200v-50h-1000v-350h900v-50q0 -200 -300 -200h-600v-400h300v-250h-300z" />
    <glyph glyph-name="lira" unicode="&#x20a4;" 
d="M400 400v-100q0 -50 50 -50h950v-50q0 -200 -300 -200h-1100v250h100v150h-100v250h100v200h-100v250h100v200q0 200 300 200h700q300 0 300 -200v-200q0 -200 -300 -200v300q0 50 -50 50h-600q-50 0 -50 -50v-100h600v-250h-600v-200h600v-250h-600z" />
    <glyph glyph-name="peseta" unicode="&#x20a7;" 
d="M100 250v1250h1000q300 0 300 -200v-450q0 -200 -300 -200h-500v50q0 200 300 200h150q50 0 50 50v250q0 50 -50 50h-650v-1000h300v-250h-300v-250q0 -200 -300 -200v450h-100v250h100z" />
    <glyph glyph-name="Euro" unicode="&#x20ac;" 
d="M400 400v-100q0 -50 50 -50h600q50 0 50 50v150q0 200 300 200v-350q0 -300 -300 -300h-700q-300 0 -300 300v100h-100v250h100v200h-100v250h100v100q0 300 300 300h700q300 0 300 -200v-200q0 -200 -300 -200v300q0 50 -50 50h-600q-50 0 -50 -50v-100h400v-250h-400
v-200h400v-250h-400z" />
    <glyph glyph-name="uni2116" unicode="&#x2116;" horiz-adv-x="1600" 
d="M550 925v425q0 100 150 100v-750h-50q-125 0 -200 100l-300 425v-525h-150v750h50q125 0 201 -100zM1450 800q0 -100 -150 -100h-400q-150 0 -150 100v550q0 100 150 100h400q150 0 150 -100v-550zM1300 850v450q0 25 -25 25h-350q-25 0 -25 -25v-450q0 -25 25 -25h350
q25 0 25 25z" />
    <glyph glyph-name="trademark" unicode="&#x2122;" horiz-adv-x="1750" 
d="M275 1325l-125 1q-150 0 -150 99l1 25h549q150 0 150 -100v-25h-275v-475q0 -150 -150 -150v625zM1175 1075l200 275q75 100 175 100h50v-750q-150 0 -150 100v425l-275 -375l-275 375v-425q0 -100 -150 -100v750h100q50 0 125 -100z" />
    <glyph glyph-name="partialdiff" unicode="&#x2202;" horiz-adv-x="1750" 
d="M100 200v1100q0 200 200 200h1100q200 0 200 -200v-1100q0 -200 -200 -200h-1100q-200 0 -200 200zM1575 201v1099q0 175 -175 175h-1100q-174 0 -175 -175v-1100q1 -175 175 -175h1101q174 0 174 176z" />
    <glyph glyph-name="Delta" unicode="&#x2206;" horiz-adv-x="1650" 
d="M0 200v1100q0 200 200 200h1100q200 0 200 -200v-1100q0 -200 -200 -200h-1100q-200 0 -200 200zM1475 201v1099q0 175 -175 175h-1100q-174 0 -175 -175v-1100q1 -175 175 -175h1101q174 0 174 176z" />
    <glyph glyph-name="product" unicode="&#x220f;" horiz-adv-x="1650" 
d="M0 200v1100q0 200 200 200h1100q200 0 200 -200v-1100q0 -200 -200 -200h-1100q-200 0 -200 200zM1475 201v1099q0 175 -175 175h-1100q-174 0 -175 -175v-1100q1 -175 175 -175h1101q174 0 174 176z" />
    <glyph glyph-name="summation" unicode="&#x2211;" horiz-adv-x="1650" 
d="M0 200v1100q0 200 200 200h1100q200 0 200 -200v-1100q0 -200 -200 -200h-1100q-200 0 -200 200zM1475 201v1099q0 175 -175 175h-1100q-174 0 -175 -175v-1100q1 -175 175 -175h1101q174 0 174 176z" />
    <glyph glyph-name="minus" unicode="&#x2212;" horiz-adv-x="1150" 
d="M0 650v250h1000v-250h-1000z" />
    <glyph glyph-name="approxequal" unicode="&#x2248;" horiz-adv-x="1650" 
d="M0 200v1100q0 200 200 200h1100q200 0 200 -200v-1100q0 -200 -200 -200h-1100q-200 0 -200 200zM1475 201v1099q0 175 -175 175h-1100q-174 0 -175 -175v-1100q1 -175 175 -175h1101q174 0 174 176z" />
    <glyph glyph-name="lessequal" unicode="&#x2264;" horiz-adv-x="1650" 
d="M0 200v1100q0 200 200 200h1100q200 0 200 -200v-1100q0 -200 -200 -200h-1100q-200 0 -200 200zM1475 201v1099q0 175 -175 175h-1100q-174 0 -175 -175v-1100q1 -175 175 -175h1101q174 0 174 176z" />
    <glyph glyph-name="greaterequal" unicode="&#x2265;" horiz-adv-x="1650" 
d="M0 200v1100q0 200 200 200h1100q200 0 200 -200v-1100q0 -200 -200 -200h-1100q-200 0 -200 200zM1475 201v1099q0 175 -175 175h-1100q-174 0 -175 -175v-1100q1 -175 175 -175h1101q174 0 174 176z" />
    <glyph glyph-name="uniF001" unicode="&#xf001;" horiz-adv-x="150" 
 />
    <glyph glyph-name="uniF001" unicode="&#xfb01;" horiz-adv-x="150" 
 />
    <glyph glyph-name="uniF002" unicode="&#xf002;" horiz-adv-x="150" 
 />
    <glyph glyph-name="uniF002" unicode="&#xfb02;" horiz-adv-x="150" 
 />
    </font>
</defs>
</svg>
